<svg xmlns="http://www.w3.org/2000/svg" width="101" height="107" viewBox="0 0 101 107" version="1.1"><path d="M 31 45 C 26.631 49.369, 29.849 58.008, 35.333 56.631 C 40.385 55.363, 40.927 46.637, 36.114 44.061 C 33.480 42.652, 33.319 42.681, 31 45 M 62.223 44.557 C 57.910 47.577, 60.145 57, 65.174 57 C 69.573 57, 71.778 47.919, 68.171 44.655 C 65.905 42.604, 65.030 42.590, 62.223 44.557 M 43.256 68.975 C 39.823 69.790, 37 71.661, 37 73.122 C 37 73.605, 42.920 74, 50.155 74 C 63.234 74, 63.300 73.989, 61.505 72.006 C 58.337 68.505, 50.627 67.225, 43.256 68.975" stroke="none" fill="#8c5516" fill-rule="evenodd"/><path d="M 17.248 55.201 C 14.910 58.018, 11.019 67.599, 11.010 70.561 C 10.996 74.796, 14.222 78, 18.500 78 C 22.778 78, 26.004 74.796, 25.990 70.561 C 25.981 67.528, 22.527 59.205, 19.807 55.660 C 18.623 54.117, 18.209 54.043, 17.248 55.201" stroke="none" fill="#68e8f3" fill-rule="evenodd"/><path d="M 39.033 12.537 C 28.050 15.617, 19.893 22.730, 14.758 33.704 C 11.244 41.213, 10.240 49.666, 11.995 56.980 L 13.247 62.196 15.373 58.445 C 16.543 56.382, 17.936 54.650, 18.469 54.597 C 19.988 54.445, 26 66.839, 26 70.123 C 26 71.744, 25.341 74.076, 24.536 75.304 C 23.140 77.435, 23.297 77.692, 27.919 80.846 C 48.092 94.612, 74.846 86.957, 85.164 64.467 C 87.044 60.368, 87.447 57.748, 87.471 49.478 C 87.498 40.147, 87.274 38.997, 84.226 32.806 C 76.076 16.253, 56.725 7.574, 39.033 12.537 M 31 45 C 26.631 49.369, 29.849 58.008, 35.333 56.631 C 40.385 55.363, 40.927 46.637, 36.114 44.061 C 33.480 42.652, 33.319 42.681, 31 45 M 62.223 44.557 C 57.910 47.577, 60.145 57, 65.174 57 C 69.573 57, 71.778 47.919, 68.171 44.655 C 65.905 42.604, 65.030 42.590, 62.223 44.557 M 43.256 68.975 C 39.823 69.790, 37 71.661, 37 73.122 C 37 73.605, 42.920 74, 50.155 74 C 63.234 74, 63.300 73.989, 61.505 72.006 C 58.337 68.505, 50.627 67.225, 43.256 68.975" stroke="none" fill="#f7d12d" fill-rule="evenodd"/></svg>