<svg xmlns="http://www.w3.org/2000/svg" width="97" height="96" viewBox="0 0 97 96" version="1.1"><path d="M 23.630 51.790 C 19.300 58.796, 48.718 65.548, 62.566 60.726 C 70.911 57.820, 77.127 50.522, 70.500 51.411 C 51.220 53.998, 48.404 54.152, 39.544 53.107 C 34.504 52.512, 29 51.750, 27.312 51.412 C 25.624 51.075, 23.967 51.245, 23.630 51.790" stroke="none" fill="#c9caca" fill-rule="evenodd"/><path d="M 29.411 30.732 C 27.454 32.689, 27.646 37.647, 29.760 39.750 C 31.650 41.630, 35.290 42.073, 36.660 40.590 C 37.149 40.060, 36.982 39.977, 36.261 40.392 C 35.428 40.871, 35.217 40.598, 35.616 39.558 C 35.943 38.707, 36.500 38.189, 36.855 38.406 C 37.210 38.624, 37.533 37.294, 37.573 35.451 C 37.616 33.473, 37.239 32.352, 36.653 32.714 C 36.067 33.077, 35.922 32.646, 36.299 31.664 C 36.650 30.749, 36.614 29.962, 36.219 29.917 C 35.823 29.871, 34.447 29.718, 33.161 29.577 C 31.874 29.436, 30.187 29.956, 29.411 30.732 M 60.439 30.098 C 59.966 30.864, 60.111 31.049, 60.834 30.603 C 61.573 30.146, 61.767 30.443, 61.384 31.442 C 61.057 32.293, 60.461 32.785, 60.058 32.536 C 58.760 31.734, 59.509 38.704, 60.901 40.380 C 62.401 42.189, 66 42.584, 66 40.941 C 66 40.359, 66.403 40.131, 66.895 40.435 C 67.388 40.740, 68.063 40.279, 68.395 39.412 C 69.358 36.905, 69.096 32, 68 32 C 67.450 32, 67.112 31.438, 67.250 30.750 C 67.581 29.095, 61.423 28.506, 60.439 30.098 M 42 53 C 43.979 54.279, 53.710 54.279, 54.500 53 C 54.891 52.368, 52.431 52.006, 47.809 52.015 C 42.721 52.026, 40.956 52.325, 42 53" stroke="none" fill="#653312" fill-rule="evenodd"/><path d="M 72.173 55.180 C 62.793 65.706, 37.827 66.391, 26.204 56.442 C 22.126 52.952, 22.126 52.952, 22.992 55.972 C 29.561 78.878, 67.458 79.352, 74.960 56.622 C 76.701 51.345, 75.941 50.952, 72.173 55.180" stroke="none" fill="#751c14" fill-rule="evenodd"/><path d="M 39.500 8.871 C 10.178 16.623, 0.241 52.753, 21.686 73.638 C 46.765 98.063, 88.820 78.992, 86.800 44.110 C 85.443 20.658, 61.732 2.993, 39.500 8.871 M 29.571 30.571 C 27.546 32.597, 27.546 38.403, 29.571 40.429 C 31.744 42.601, 35.712 42.406, 36.965 40.066 C 40.568 33.333, 34.545 25.598, 29.571 30.571 M 60.035 30.934 C 59.466 31.998, 58.993 34.361, 58.985 36.184 C 58.973 38.800, 58.745 39.183, 57.909 38 C 56.966 36.667, 56.893 36.667, 57.257 38 C 57.482 38.825, 58.169 39.500, 58.783 39.500 C 59.397 39.500, 60.462 40.063, 61.150 40.750 C 65.761 45.361, 71.366 37.289, 67.965 30.934 C 66.568 28.325, 61.432 28.325, 60.035 30.934 M 23.017 50.480 C 20.250 53.814, 24.763 63.293, 31.598 68.507 C 45.083 78.793, 66.892 74.183, 73.976 59.549 C 78.524 50.154, 76.754 48.610, 64 50.846 C 53.171 52.744, 34.113 52.075, 26.044 49.514 C 25.075 49.207, 23.713 49.641, 23.017 50.480" stroke="none" fill="#f4cd2e" fill-rule="evenodd"/></svg>