<svg xmlns="http://www.w3.org/2000/svg" width="100" height="96" viewBox="0 0 100 96" version="1.1"><path d="M 70 50.649 C 61.983 52.221, 42.369 52.440, 35.114 51.040 C 26.650 49.406, 26 49.553, 26 53.099 C 26 60.276, 33.919 69.421, 42.734 72.425 C 48.182 74.282, 56.328 74.467, 61.101 72.844 C 69.690 69.922, 77.733 61.411, 78.697 54.223 C 79.354 49.322, 78.520 48.980, 70 50.649 M 41.958 64.292 C 39.596 65.507, 37.670 66.950, 37.678 67.500 C 37.707 69.533, 44.275 72.252, 50.332 72.739 C 55.347 73.141, 57.596 72.799, 61.786 70.997 C 64.654 69.763, 67 68.231, 67 67.592 C 67 65.058, 60.581 62.579, 53.376 62.331 C 47.664 62.133, 45.401 62.522, 41.958 64.292" stroke="none" fill="#7c0a11" fill-rule="evenodd"/><path d="M 35.500 13.795 C 34.400 14.015, 32.334 15.292, 30.908 16.633 C 28.662 18.746, 27.939 18.927, 25.485 17.994 C 16.436 14.554, 9.523 24.786, 14.919 33.634 C 18.299 39.177, 27.742 45, 33.352 45 C 36.019 45, 41.722 39.339, 44.625 33.810 C 45.582 31.986, 46.393 28.174, 46.431 25.318 C 46.489 20.932, 46.062 19.678, 43.649 17.158 C 40.588 13.960, 38.661 13.165, 35.500 13.795 M 63.388 13.980 C 54.545 17.553, 54.898 30.980, 64.110 41.472 C 67.878 45.764, 70.686 45.976, 77.554 42.487 C 90.987 35.663, 94.583 25.182, 85.739 18.636 C 83.293 16.826, 82.494 16.722, 78.739 17.724 C 75.176 18.676, 74.364 18.613, 73.648 17.334 C 72.961 16.108, 66.894 12.814, 65.782 13.063 C 65.627 13.098, 64.550 13.511, 63.388 13.980 M 42.373 63.943 C 36.821 66.430, 36.329 67.622, 39.947 69.822 C 41.622 70.840, 42.810 71.860, 42.587 72.087 C 42.364 72.314, 45.475 72.642, 49.501 72.816 C 55.309 73.067, 57.873 72.680, 61.911 70.943 C 64.710 69.739, 67 68.231, 67 67.592 C 67 66.954, 65.537 65.564, 63.750 64.504 C 59.136 61.767, 47.890 61.472, 42.373 63.943" stroke="none" fill="#e32d23" fill-rule="evenodd"/><path d="M 39.314 9.792 C 31.990 12.415, 25.468 16.868, 26.882 18.282 C 27.689 19.089, 28.763 18.643, 30.864 16.630 C 34.952 12.714, 39.258 12.796, 43.326 16.867 C 46.110 19.652, 46.492 20.686, 46.431 25.271 C 46.353 31.201, 44.487 35.349, 39.327 41.060 C 36.876 43.773, 34.947 44.993, 33.134 44.978 C 29.454 44.947, 23.050 41.861, 18.651 37.998 C 16.606 36.203, 14.656 35.011, 14.317 35.349 C 12.722 36.944, 12.823 50.880, 14.471 56.548 C 24.516 91.103, 71.577 94.725, 86.865 62.120 C 89.170 57.203, 89.500 55.228, 89.500 46.333 C 89.500 40.742, 89.178 35.844, 88.784 35.450 C 88.390 35.056, 86.394 36.203, 84.349 37.998 C 79.944 41.866, 73.545 44.947, 69.854 44.978 C 66.841 45.003, 62.241 40.353, 59.006 34.012 C 53.357 22.938, 60 10.466, 69.446 14.413 C 71.288 15.183, 73.207 16.548, 73.710 17.447 C 74.276 18.458, 75.268 18.835, 76.312 18.434 C 77.791 17.866, 77.704 17.555, 75.609 15.907 C 74.295 14.874, 70.834 12.830, 67.917 11.365 C 60.743 7.761, 47.084 7.010, 39.314 9.792 M 26.287 50.532 C 21.582 53.973, 33.366 70.026, 42.616 72.776 C 48.793 74.613, 58.785 74.281, 63.637 72.078 C 68.994 69.645, 75.366 63.855, 77.397 59.575 C 79.105 55.977, 79.539 50.451, 78.180 49.611 C 77.729 49.332, 73.791 49.740, 69.430 50.517 C 59.498 52.287, 43.598 52.332, 34.732 50.617 C 29.375 49.580, 27.613 49.562, 26.287 50.532" stroke="none" fill="#f8d02e" fill-rule="evenodd"/></svg>