<svg xmlns="http://www.w3.org/2000/svg" width="95" height="83" viewBox="0 0 95 83" version="1.1"><path d="M 32.225 27.004 C 28.879 29.044, 27.242 31.999, 26.285 37.729 C 24.633 47.615, 41.480 64.495, 51.119 62.611 C 55.787 61.699, 64.581 55.362, 68.289 50.239 C 72.127 44.937, 73.184 36.190, 70.592 31.177 C 67.183 24.586, 59.128 23.377, 52.469 28.456 C 50.246 30.151, 48.893 30.636, 48.438 29.900 C 47.513 28.403, 39.985 25.048, 37.500 25.026 C 36.400 25.016, 34.026 25.906, 32.225 27.004" stroke="none" fill="#fbfafa" fill-rule="evenodd"/><path d="M 40.500 4.333 C 20.618 9.379, 7.251 29.115, 10.798 48.190 C 14.059 65.727, 25.775 77.612, 43.262 81.124 C 54.449 83.370, 68.042 78.863, 76.952 69.952 C 92.485 54.419, 92.461 30.668, 76.896 15.104 C 67.182 5.390, 52.941 1.176, 40.500 4.333 M 32.225 27.004 C 28.879 29.044, 27.242 31.999, 26.285 37.729 C 24.633 47.615, 41.480 64.495, 51.119 62.611 C 55.787 61.699, 64.581 55.362, 68.289 50.239 C 72.127 44.937, 73.184 36.190, 70.592 31.177 C 67.183 24.586, 59.128 23.377, 52.469 28.456 C 50.246 30.151, 48.893 30.636, 48.438 29.900 C 47.513 28.403, 39.985 25.048, 37.500 25.026 C 36.400 25.016, 34.026 25.906, 32.225 27.004" stroke="none" fill="#f3655f" fill-rule="evenodd"/></svg>