<svg xmlns="http://www.w3.org/2000/svg" width="92" height="90" viewBox="0 0 92 90" version="1.1"><path d="M 28 32 C 25.602 34.398, 25.433 37.746, 27.557 40.777 C 29.250 43.195, 32.891 43.709, 34.800 41.800 C 36.912 39.688, 36.275 33.306, 33.777 31.557 C 30.917 29.553, 30.408 29.592, 28 32 M 58.573 31.570 C 54.361 35.782, 56.556 43.418, 61.805 42.810 C 66.686 42.245, 68.239 35.382, 64.363 31.506 C 62.432 29.575, 60.547 29.596, 58.573 31.570 M 37 53.594 C 31.967 55.774, 27.765 60.012, 29.074 61.589 C 29.890 62.573, 31.109 62.382, 34.805 60.691 C 41.215 57.759, 51.651 57.797, 58.295 60.777 C 62.601 62.708, 63.154 62.762, 63.712 61.308 C 64.553 59.117, 59.197 54.426, 54.303 53.067 C 48.932 51.576, 41.110 51.814, 37 53.594" stroke="none" fill="#5f300e" fill-rule="evenodd"/><path d="M 35.500 4.338 C 24.570 7.979, 15.970 15.561, 11.180 25.782 C 8.833 30.789, 8.500 32.743, 8.500 41.500 C 8.500 50.239, 8.836 52.216, 11.160 57.175 C 26.151 89.153, 71.828 86.564, 83.107 53.097 C 89.006 35.594, 80.832 16.052, 63.819 6.984 C 58.413 4.103, 56.560 3.661, 48.582 3.355 C 42.783 3.132, 38.054 3.487, 35.500 4.338 M 28 32 C 25.602 34.398, 25.433 37.746, 27.557 40.777 C 29.250 43.195, 32.891 43.709, 34.800 41.800 C 36.912 39.688, 36.275 33.306, 33.777 31.557 C 30.917 29.553, 30.408 29.592, 28 32 M 58.573 31.570 C 54.361 35.782, 56.556 43.418, 61.805 42.810 C 66.686 42.245, 68.239 35.382, 64.363 31.506 C 62.432 29.575, 60.547 29.596, 58.573 31.570 M 37 53.594 C 31.967 55.774, 27.765 60.012, 29.074 61.589 C 29.890 62.573, 31.109 62.382, 34.805 60.691 C 41.215 57.759, 51.651 57.797, 58.295 60.777 C 62.601 62.708, 63.154 62.762, 63.712 61.308 C 64.553 59.117, 59.197 54.426, 54.303 53.067 C 48.932 51.576, 41.110 51.814, 37 53.594" stroke="none" fill="#f8d22c" fill-rule="evenodd"/></svg>