<svg xmlns="http://www.w3.org/2000/svg" width="205" height="212" viewBox="0 0 205 212" version="1.1"><path d="M 69.288 91.629 C 65.654 93.421, 61.987 99.949, 62.022 104.566 C 62.052 108.586, 65.290 115.389, 68.114 117.367 C 69.396 118.265, 72.376 119, 74.737 119 C 78.208 119, 79.726 118.362, 82.669 115.665 C 85.816 112.781, 86.369 111.593, 86.760 106.885 C 87.335 99.953, 85.243 94.728, 80.810 92.026 C 76.847 89.609, 73.611 89.498, 69.288 91.629 M 129.288 91.629 C 125.654 93.421, 121.987 99.949, 122.022 104.566 C 122.052 108.586, 125.290 115.389, 128.114 117.367 C 129.396 118.265, 132.376 119, 134.737 119 C 138.208 119, 139.726 118.362, 142.669 115.665 C 145.816 112.781, 146.369 111.593, 146.760 106.885 C 147.335 99.953, 145.243 94.728, 140.810 92.026 C 136.847 89.609, 133.611 89.498, 129.288 91.629 M 95 137.626 C 84.979 139.563, 75.918 145.391, 72.423 152.148 C 68.853 159.052, 72.201 168.161, 79.301 170.864 C 82.717 172.164, 83.893 172.096, 91.834 170.149 C 102.715 167.481, 109.520 167.437, 119.068 169.976 C 128.103 172.379, 130.236 172.447, 134.094 170.451 C 140.209 167.289, 142.828 158.436, 139.534 152.065 C 137.346 147.835, 129.912 141.745, 124.382 139.653 C 119.535 137.819, 100.719 136.521, 95 137.626" stroke="none" fill="#492a05" fill-rule="evenodd"/><path d="M 92.500 23.101 C 82.954 24.097, 70.092 27.939, 60.597 32.631 C 27.699 48.889, 10.991 81.089, 15.001 120.506 C 18.941 159.240, 43.790 186.493, 83.500 195.631 C 95.878 198.480, 118.380 198.040, 131.130 194.699 C 163.406 186.243, 185.684 164.410, 193.507 133.569 C 195.528 125.603, 196 121.299, 196 110.830 C 196 86.221, 190.027 68.825, 175.740 51.823 C 163.267 36.980, 139.681 25.420, 117 23.034 C 106.320 21.911, 103.842 21.917, 92.500 23.101 M 69.288 91.629 C 65.654 93.421, 61.987 99.949, 62.022 104.566 C 62.052 108.586, 65.290 115.389, 68.114 117.367 C 69.396 118.265, 72.376 119, 74.737 119 C 78.208 119, 79.726 118.362, 82.669 115.665 C 85.816 112.781, 86.369 111.593, 86.760 106.885 C 87.335 99.953, 85.243 94.728, 80.810 92.026 C 76.847 89.609, 73.611 89.498, 69.288 91.629 M 129.288 91.629 C 125.654 93.421, 121.987 99.949, 122.022 104.566 C 122.052 108.586, 125.290 115.389, 128.114 117.367 C 129.396 118.265, 132.376 119, 134.737 119 C 138.208 119, 139.726 118.362, 142.669 115.665 C 145.816 112.781, 146.369 111.593, 146.760 106.885 C 147.335 99.953, 145.243 94.728, 140.810 92.026 C 136.847 89.609, 133.611 89.498, 129.288 91.629 M 95 137.626 C 84.979 139.563, 75.918 145.391, 72.423 152.148 C 68.853 159.052, 72.201 168.161, 79.301 170.864 C 82.717 172.164, 83.893 172.096, 91.834 170.149 C 102.715 167.481, 109.520 167.437, 119.068 169.976 C 128.103 172.379, 130.236 172.447, 134.094 170.451 C 140.209 167.289, 142.828 158.436, 139.534 152.065 C 137.346 147.835, 129.912 141.745, 124.382 139.653 C 119.535 137.819, 100.719 136.521, 95 137.626" stroke="none" fill="#f8cb29" fill-rule="evenodd"/></svg>